<svg width="522" height="105" viewBox="0 0 522 105" fill="none" xmlns="http://www.w3.org/2000/svg">
<path d="M58.2431 41.9707H23.7569C23.6039 41.9707 23.4572 41.91 23.349 41.8018C23.2408 41.6936 23.18 41.5468 23.18 41.3938C23.18 41.2408 23.2408 41.0941 23.349 40.9859C23.4572 40.8777 23.6039 40.8169 23.7569 40.8169H57.7077L59.2031 21.7692L48.3846 28.0415C48.2524 28.1186 48.095 28.1401 47.947 28.1011C47.799 28.0622 47.6725 27.966 47.5954 27.8338C47.5183 27.7016 47.4968 27.5442 47.5358 27.3962C47.5747 27.2482 47.6709 27.1217 47.8031 27.0446L59.5954 20.2092C59.6852 20.1551 59.7882 20.1265 59.8931 20.1265C59.998 20.1265 60.1009 20.1551 60.1908 20.2092C60.2801 20.2643 60.3524 20.3431 60.3996 20.4367C60.4469 20.5304 60.4673 20.6354 60.4585 20.74L58.8431 41.4261C58.8347 41.5775 58.7671 41.7196 58.6548 41.8215C58.5425 41.9234 58.3946 41.977 58.2431 41.9707Z" fill="black"/>
<path d="M58.2431 41.9707H23.7569C23.6116 41.9712 23.4714 41.9168 23.3645 41.8184C23.2575 41.72 23.1916 41.5849 23.18 41.44L21.5646 20.7538C21.5558 20.6493 21.5762 20.5443 21.6234 20.4506C21.6707 20.3569 21.743 20.2781 21.8323 20.2231C21.9222 20.1689 22.0251 20.1403 22.13 20.1403C22.2349 20.1403 22.3378 20.1689 22.4277 20.2231L44.9277 33.2477C45.0052 33.2782 45.0753 33.3251 45.1329 33.3853C45.1906 33.4454 45.2346 33.5174 45.2618 33.5962C45.289 33.6749 45.2988 33.7587 45.2906 33.8416C45.2823 33.9245 45.2562 34.0047 45.214 34.0765C45.1719 34.1484 45.1146 34.2103 45.0462 34.2579C44.9778 34.3056 44.9 34.3378 44.8179 34.3525C44.7359 34.3671 44.6516 34.3638 44.571 34.3428C44.4904 34.3218 44.4152 34.2836 44.3508 34.2307L22.7969 21.7692L24.2923 40.8169H58.2431C58.3961 40.8169 58.5428 40.8777 58.651 40.9859C58.7592 41.0941 58.82 41.2408 58.82 41.3938C58.82 41.5468 58.7592 41.6936 58.651 41.8018C58.5428 41.91 58.3961 41.9707 58.2431 41.9707Z" fill="black"/>
<path d="M47.9231 28.12C47.8473 28.1205 47.7723 28.1057 47.7025 28.0763C47.6326 28.047 47.5695 28.0037 47.5169 27.9492L41 21.4184L34.4692 27.9492C34.4156 28.0029 34.352 28.0456 34.2819 28.0746C34.2118 28.1037 34.1367 28.1187 34.0608 28.1187C33.9849 28.1187 33.9097 28.1037 33.8397 28.0746C33.7696 28.0456 33.7059 28.0029 33.6523 27.9492C33.546 27.8398 33.4866 27.6933 33.4866 27.5407C33.4866 27.3882 33.546 27.2417 33.6523 27.1323L40.5754 20.2092C40.6286 20.1556 40.6919 20.1131 40.7616 20.0841C40.8313 20.055 40.906 20.0401 40.9815 20.0401C41.057 20.0401 41.1318 20.055 41.2015 20.0841C41.2712 20.1131 41.3345 20.1556 41.3877 20.2092L48.3108 27.1323C48.3645 27.1859 48.4071 27.2495 48.4362 27.3196C48.4653 27.3897 48.4803 27.4649 48.4803 27.5407C48.4803 27.6166 48.4653 27.6918 48.4362 27.7619C48.4071 27.8319 48.3645 27.8956 48.3108 27.9492C48.209 28.0548 48.0697 28.1162 47.9231 28.12Z" fill="black"/>
<path d="M21.6254 84.88L20.9454 85.34C21.0988 85.6467 21.2954 85.9367 21.5354 86.21C21.7821 86.4767 22.0654 86.6933 22.3854 86.86C22.7121 87.02 23.0654 87.1 23.4454 87.1C23.7254 87.1 23.9921 87.0533 24.2454 86.96C24.5054 86.8667 24.7354 86.7333 24.9354 86.56C25.1421 86.3867 25.3021 86.1767 25.4154 85.93C25.5354 85.6833 25.5954 85.4067 25.5954 85.1C25.5954 84.78 25.5388 84.5067 25.4254 84.28C25.3121 84.0467 25.1654 83.85 24.9854 83.69C24.8121 83.5233 24.6221 83.3867 24.4154 83.28C24.2088 83.1733 24.0121 83.0867 23.8254 83.02C23.4188 82.88 23.0954 82.74 22.8554 82.6C22.6221 82.4533 22.4554 82.3 22.3554 82.14C22.2554 81.9733 22.2054 81.7933 22.2054 81.6C22.2054 81.3733 22.2921 81.17 22.4654 80.99C22.6388 80.8033 22.9154 80.71 23.2954 80.71C23.5688 80.71 23.7988 80.7633 23.9854 80.87C24.1788 80.9767 24.3421 81.1133 24.4754 81.28C24.6088 81.4467 24.7188 81.6167 24.8054 81.79L25.5354 81.37C25.4221 81.1233 25.2654 80.89 25.0654 80.67C24.8654 80.4433 24.6221 80.26 24.3354 80.12C24.0554 79.9733 23.7254 79.9 23.3454 79.9C22.9521 79.9 22.6021 79.98 22.2954 80.14C21.9888 80.2933 21.7488 80.5067 21.5754 80.78C21.4021 81.0533 21.3154 81.3633 21.3154 81.71C21.3154 82.03 21.3754 82.3 21.4954 82.52C21.6221 82.74 21.7821 82.9267 21.9754 83.08C22.1688 83.2267 22.3721 83.35 22.5854 83.45C22.7988 83.5433 22.9921 83.62 23.1654 83.68C23.4321 83.7733 23.6821 83.88 23.9154 84C24.1554 84.1133 24.3488 84.2633 24.4954 84.45C24.6421 84.6367 24.7154 84.8867 24.7154 85.2C24.7154 85.52 24.6021 85.7833 24.3754 85.99C24.1488 86.1967 23.8488 86.3 23.4754 86.3C23.1954 86.3 22.9454 86.24 22.7254 86.12C22.5054 86 22.3054 85.8333 22.1254 85.62C21.9521 85.4067 21.7854 85.16 21.6254 84.88ZM27.8139 82.27L30.0939 86.35L32.3739 82.27L32.8939 87H33.7439L32.8939 79.65L30.0939 84.72L27.2939 79.65L26.4439 87H27.2939L27.8139 82.27ZM35.4396 83.5C35.4396 82.9733 35.553 82.5033 35.7796 82.09C36.013 81.6767 36.3296 81.35 36.7296 81.11C37.1296 80.87 37.583 80.75 38.0896 80.75C38.603 80.75 39.0563 80.87 39.4496 81.11C39.8496 81.35 40.163 81.6767 40.3896 82.09C40.623 82.5033 40.7396 82.9733 40.7396 83.5C40.7396 84.0267 40.623 84.4967 40.3896 84.91C40.163 85.3233 39.8496 85.65 39.4496 85.89C39.0563 86.13 38.603 86.25 38.0896 86.25C37.583 86.25 37.1296 86.13 36.7296 85.89C36.3296 85.65 36.013 85.3233 35.7796 84.91C35.553 84.4967 35.4396 84.0267 35.4396 83.5ZM34.5396 83.5C34.5396 84.0067 34.6263 84.48 34.7996 84.92C34.9796 85.36 35.2296 85.7433 35.5496 86.07C35.8696 86.39 36.2463 86.6433 36.6796 86.83C37.113 87.01 37.583 87.1 38.0896 87.1C38.603 87.1 39.073 87.01 39.4996 86.83C39.933 86.6433 40.3096 86.39 40.6296 86.07C40.9496 85.7433 41.1963 85.36 41.3696 84.92C41.5496 84.48 41.6396 84.0067 41.6396 83.5C41.6396 82.9867 41.5496 82.5133 41.3696 82.08C41.1963 81.64 40.9496 81.26 40.6296 80.94C40.3096 80.6133 39.933 80.36 39.4996 80.18C39.073 79.9933 38.603 79.9 38.0896 79.9C37.583 79.9 37.113 79.9933 36.6796 80.18C36.2463 80.36 35.8696 80.6133 35.5496 80.94C35.2296 81.26 34.9796 81.64 34.7996 82.08C34.6263 82.5133 34.5396 82.9867 34.5396 83.5ZM43.34 83.5C43.34 82.9733 43.4534 82.5033 43.68 82.09C43.9134 81.6767 44.23 81.35 44.63 81.11C45.03 80.87 45.4834 80.75 45.99 80.75C46.5034 80.75 46.9567 80.87 47.35 81.11C47.75 81.35 48.0634 81.6767 48.29 82.09C48.5234 82.5033 48.64 82.9733 48.64 83.5C48.64 84.0267 48.5234 84.4967 48.29 84.91C48.0634 85.3233 47.75 85.65 47.35 85.89C46.9567 86.13 46.5034 86.25 45.99 86.25C45.4834 86.25 45.03 86.13 44.63 85.89C44.23 85.65 43.9134 85.3233 43.68 84.91C43.4534 84.4967 43.34 84.0267 43.34 83.5ZM42.44 83.5C42.44 84.0067 42.5267 84.48 42.7 84.92C42.88 85.36 43.13 85.7433 43.45 86.07C43.77 86.39 44.1467 86.6433 44.58 86.83C45.0134 87.01 45.4834 87.1 45.99 87.1C46.5034 87.1 46.9734 87.01 47.4 86.83C47.8334 86.6433 48.21 86.39 48.53 86.07C48.85 85.7433 49.0967 85.36 49.27 84.92C49.45 84.48 49.54 84.0067 49.54 83.5C49.54 82.9867 49.45 82.5133 49.27 82.08C49.0967 81.64 48.85 81.26 48.53 80.94C48.21 80.6133 47.8334 80.36 47.4 80.18C46.9734 79.9933 46.5034 79.9 45.99 79.9C45.4834 79.9 45.0134 79.9933 44.58 80.18C44.1467 80.36 43.77 80.6133 43.45 80.94C43.13 81.26 42.88 81.64 42.7 82.08C42.5267 82.5133 42.44 82.9867 42.44 83.5ZM49.7377 80.8H51.5377V87H52.3877V80.8H54.1877V80H49.7377V80.8ZM55.5561 83.6H60.3561V82.8H55.5561V83.6ZM59.7861 80V87H60.6361V80H59.7861ZM55.0861 80V87H55.9361V80H55.0861Z" fill="#333333"/>
<path d="M4.51818 93.3V101H5.45318V93.3H4.51818ZM13.0445 93.3V99.031L7.21447 92.915V101H8.14947V95.269L13.9795 101.385V93.3H13.0445ZM14.9738 94.18H16.9538V101H17.8888V94.18H19.8688V93.3H14.9738V94.18ZM21.3741 101H25.2571V100.12H21.3741V101ZM21.3741 94.18H25.2571V93.3H21.3741V94.18ZM21.3741 97.26H25.0371V96.38H21.3741V97.26ZM20.8571 93.3V101H21.7921V93.3H20.8571ZM28.2799 97.205L30.9199 101H32.0749L29.3249 97.205H28.2799ZM26.9049 93.3V101H27.8399V93.3H26.9049ZM27.4219 94.125H28.9949C29.3249 94.125 29.6146 94.1837 29.8639 94.301C30.1206 94.4183 30.3186 94.587 30.4579 94.807C30.6046 95.027 30.6779 95.2947 30.6779 95.61C30.6779 95.9253 30.6046 96.193 30.4579 96.413C30.3186 96.633 30.1206 96.8017 29.8639 96.919C29.6146 97.0363 29.3249 97.095 28.9949 97.095H27.4219V97.92H28.9949C29.4936 97.92 29.9372 97.8283 30.3259 97.645C30.7219 97.4543 31.0336 97.1867 31.2609 96.842C31.4956 96.49 31.6129 96.0793 31.6129 95.61C31.6129 95.1333 31.4956 94.7227 31.2609 94.378C31.0336 94.0333 30.7219 93.7693 30.3259 93.586C29.9372 93.3953 29.4936 93.3 28.9949 93.3H27.4219V94.125ZM33.7972 98.69H37.8672L37.5372 97.81H34.1272L33.7972 98.69ZM35.8102 95.038L37.1302 98.14L37.2182 98.36L38.3402 101H39.3852L35.8102 92.915L32.2352 101H33.2802L34.4242 98.294L34.5122 98.096L35.8102 95.038ZM40.5389 97.15C40.5389 96.5487 40.6709 96.0243 40.9349 95.577C41.2062 95.1223 41.5582 94.7667 41.9909 94.51C42.4236 94.2533 42.8929 94.125 43.3989 94.125C43.7656 94.125 44.0992 94.1727 44.3999 94.268C44.7079 94.3633 44.9866 94.499 45.2359 94.675C45.4852 94.8437 45.6979 95.0417 45.8739 95.269V94.037C45.5512 93.751 45.1992 93.5383 44.8179 93.399C44.4366 93.2597 43.9636 93.19 43.3989 93.19C42.8636 93.19 42.3612 93.289 41.8919 93.487C41.4299 93.6777 41.0229 93.9527 40.6709 94.312C40.3189 94.664 40.0439 95.082 39.8459 95.566C39.6479 96.05 39.5489 96.578 39.5489 97.15C39.5489 97.722 39.6479 98.25 39.8459 98.734C40.0439 99.218 40.3189 99.6397 40.6709 99.999C41.0229 100.351 41.4299 100.626 41.8919 100.824C42.3612 101.015 42.8636 101.11 43.3989 101.11C43.9636 101.11 44.4366 101.04 44.8179 100.901C45.1992 100.762 45.5512 100.549 45.8739 100.263V99.031C45.6979 99.2583 45.4852 99.46 45.2359 99.636C44.9866 99.8047 44.7079 99.9367 44.3999 100.032C44.0992 100.127 43.7656 100.175 43.3989 100.175C42.8929 100.175 42.4236 100.047 41.9909 99.79C41.5582 99.5333 41.2062 99.1777 40.9349 98.723C40.6709 98.2683 40.5389 97.744 40.5389 97.15ZM46.4162 94.18H48.3962V101H49.3312V94.18H51.3112V93.3H46.4162V94.18ZM52.2994 93.3V101H53.2344V93.3H52.2994ZM55.5457 97.15C55.5457 96.5707 55.6704 96.0537 55.9197 95.599C56.1764 95.1443 56.5247 94.785 56.9647 94.521C57.4047 94.257 57.9034 94.125 58.4607 94.125C59.0254 94.125 59.5241 94.257 59.9567 94.521C60.3967 94.785 60.7414 95.1443 60.9907 95.599C61.2474 96.0537 61.3757 96.5707 61.3757 97.15C61.3757 97.7293 61.2474 98.2463 60.9907 98.701C60.7414 99.1557 60.3967 99.515 59.9567 99.779C59.5241 100.043 59.0254 100.175 58.4607 100.175C57.9034 100.175 57.4047 100.043 56.9647 99.779C56.5247 99.515 56.1764 99.1557 55.9197 98.701C55.6704 98.2463 55.5457 97.7293 55.5457 97.15ZM54.5557 97.15C54.5557 97.7073 54.6511 98.228 54.8417 98.712C55.0397 99.196 55.3147 99.6177 55.6667 99.977C56.0187 100.329 56.4331 100.608 56.9097 100.813C57.3864 101.011 57.9034 101.11 58.4607 101.11C59.0254 101.11 59.5424 101.011 60.0117 100.813C60.4884 100.608 60.9027 100.329 61.2547 99.977C61.6067 99.6177 61.8781 99.196 62.0687 98.712C62.2667 98.228 62.3657 97.7073 62.3657 97.15C62.3657 96.5853 62.2667 96.0647 62.0687 95.588C61.8781 95.104 61.6067 94.686 61.2547 94.334C60.9027 93.9747 60.4884 93.696 60.0117 93.498C59.5424 93.2927 59.0254 93.19 58.4607 93.19C57.9034 93.19 57.3864 93.2927 56.9097 93.498C56.4331 93.696 56.0187 93.9747 55.6667 94.334C55.3147 94.686 55.0397 95.104 54.8417 95.588C54.6511 96.0647 54.5557 96.5853 54.5557 97.15ZM69.5162 93.3V99.031L63.6862 92.915V101H64.6212V95.269L70.4512 101.385V93.3H69.5162ZM72.5014 98.668L71.7534 99.174C71.9221 99.5113 72.1384 99.8303 72.4024 100.131C72.6738 100.424 72.9854 100.663 73.3374 100.846C73.6968 101.022 74.0854 101.11 74.5034 101.11C74.8114 101.11 75.1048 101.059 75.3834 100.956C75.6694 100.853 75.9224 100.707 76.1424 100.516C76.3698 100.325 76.5458 100.094 76.6704 99.823C76.8024 99.5517 76.8684 99.2473 76.8684 98.91C76.8684 98.558 76.8061 98.2573 76.6814 98.008C76.5568 97.7513 76.3954 97.535 76.1974 97.359C76.0068 97.1757 75.7978 97.0253 75.5704 96.908C75.3431 96.7907 75.1268 96.6953 74.9214 96.622C74.4741 96.468 74.1184 96.314 73.8544 96.16C73.5978 95.9987 73.4144 95.83 73.3044 95.654C73.1944 95.4707 73.1394 95.2727 73.1394 95.06C73.1394 94.8107 73.2348 94.587 73.4254 94.389C73.6161 94.1837 73.9204 94.081 74.3384 94.081C74.6391 94.081 74.8921 94.1397 75.0974 94.257C75.3101 94.3743 75.4898 94.5247 75.6364 94.708C75.7831 94.8913 75.9041 95.0783 75.9994 95.269L76.8024 94.807C76.6778 94.5357 76.5054 94.279 76.2854 94.037C76.0654 93.7877 75.7978 93.586 75.4824 93.432C75.1744 93.2707 74.8114 93.19 74.3934 93.19C73.9608 93.19 73.5758 93.278 73.2384 93.454C72.9011 93.6227 72.6371 93.8573 72.4464 94.158C72.2558 94.4587 72.1604 94.7997 72.1604 95.181C72.1604 95.533 72.2264 95.83 72.3584 96.072C72.4978 96.314 72.6738 96.5193 72.8864 96.688C73.0991 96.8493 73.3228 96.985 73.5574 97.095C73.7921 97.1977 74.0048 97.282 74.1954 97.348C74.4888 97.4507 74.7638 97.568 75.0204 97.7C75.2844 97.8247 75.4971 97.9897 75.6584 98.195C75.8198 98.4003 75.9004 98.6753 75.9004 99.02C75.9004 99.372 75.7758 99.6617 75.5264 99.889C75.2771 100.116 74.9471 100.23 74.5364 100.23C74.2284 100.23 73.9534 100.164 73.7114 100.032C73.4694 99.9 73.2494 99.7167 73.0514 99.482C72.8608 99.2473 72.6774 98.976 72.5014 98.668Z" fill="#333333"/>
<path d="M176 43.8677C172.587 43.8677 169.314 42.512 166.901 40.0988C164.488 37.6857 163.132 34.4127 163.132 31C163.132 27.5873 164.488 24.3143 166.901 21.9012C169.314 19.488 172.587 18.1323 176 18.1323C182.923 18.1323 196.769 30.0585 197.342 30.5662C197.404 30.6199 197.454 30.6865 197.488 30.7613C197.523 30.8362 197.541 30.9176 197.541 31C197.541 31.0824 197.523 31.1638 197.488 31.2387C197.454 31.3136 197.404 31.3801 197.342 31.4339C196.769 31.9231 182.923 43.8677 176 43.8677ZM176 19.2862C172.893 19.2862 169.914 20.5203 167.717 22.7171C165.52 24.9138 164.286 27.8933 164.286 31C164.286 34.1067 165.52 37.0862 167.717 39.283C169.914 41.4797 172.893 42.7139 176 42.7139C181.783 42.7139 193.483 33.1739 196.072 31C193.474 28.8262 181.774 19.2862 176 19.2862Z" fill="black"/>
<path d="M200 43.8677C193.077 43.8677 179.231 31.9415 178.658 31.4338C178.596 31.3859 178.544 31.3256 178.505 31.2567C178.467 31.1879 178.443 31.1118 178.435 31.0333C178.427 30.9548 178.435 30.8755 178.459 30.8004C178.483 30.7252 178.522 30.6557 178.574 30.5963C178.626 30.5368 178.69 30.4886 178.761 30.4547C178.832 30.4208 178.909 30.4018 178.988 30.399C179.067 30.3961 179.146 30.4095 179.219 30.4383C179.293 30.467 179.359 30.5105 179.415 30.5661C179.554 30.6861 193.506 42.7138 200 42.7138C203.107 42.7138 206.086 41.4797 208.283 39.2829C210.48 37.0861 211.714 34.1067 211.714 31C211.714 27.8933 210.48 24.9138 208.283 22.717C206.086 20.5203 203.107 19.2861 200 19.2861C197.512 19.2861 193.474 21.1323 188.314 24.6307C188.19 24.7099 188.04 24.7383 187.896 24.7099C187.751 24.6815 187.623 24.5986 187.538 24.4784C187.496 24.4158 187.466 24.3452 187.45 24.2709C187.434 24.1966 187.434 24.1199 187.448 24.0453C187.462 23.9707 187.491 23.8996 187.532 23.8361C187.574 23.7726 187.628 23.718 187.691 23.6754C193.118 19.9831 197.268 18.1369 200.023 18.1369C201.713 18.1369 203.386 18.4697 204.947 19.1164C206.509 19.7631 207.927 20.7109 209.122 21.9058C210.317 23.1006 211.265 24.5192 211.911 26.0803C212.558 27.6415 212.891 29.3148 212.891 31.0046C212.891 32.6944 212.558 34.3677 211.911 35.9288C211.265 37.49 210.317 38.9086 209.122 40.1034C207.927 41.2983 206.509 42.2461 204.947 42.8928C203.386 43.5395 201.713 43.8723 200.023 43.8723L200 43.8677Z" fill="black"/>
<path d="M174.516 81.797L177.024 86.285L179.532 81.797L180.104 87H181.039L180.104 78.915L177.024 84.492L173.944 78.915L173.009 87H173.944L174.516 81.797ZM183.091 84.69H187.161L186.831 83.81H183.421L183.091 84.69ZM185.104 81.038L186.424 84.14L186.512 84.36L187.634 87H188.679L185.104 78.915L181.529 87H182.574L183.718 84.294L183.806 84.096L185.104 81.038ZM195.446 79.3V85.031L189.616 78.915V87H190.551V81.269L196.381 87.385V79.3H195.446ZM202.336 79.3L200.345 82.864L198.365 79.3H197.32L199.883 83.689V87H200.818V83.678L203.381 79.3H202.336Z" fill="#333333"/>
<path d="M155.089 94V101H155.939V94H155.089ZM155.559 94.8H156.989C157.442 94.8 157.809 94.91 158.089 95.13C158.376 95.3433 158.519 95.6667 158.519 96.1C158.519 96.5267 158.376 96.85 158.089 97.07C157.809 97.29 157.442 97.4 156.989 97.4H155.559V98.2H156.989C157.442 98.2 157.846 98.1167 158.199 97.95C158.559 97.7767 158.842 97.5333 159.049 97.22C159.262 96.9 159.369 96.5267 159.369 96.1C159.369 95.6667 159.262 95.2933 159.049 94.98C158.842 94.6667 158.559 94.4267 158.199 94.26C157.846 94.0867 157.442 94 156.989 94H155.559V94.8ZM160.534 98.9H164.234L163.934 98.1H160.834L160.534 98.9ZM162.364 95.58L163.564 98.4L163.644 98.6L164.664 101H165.614L162.364 93.65L159.114 101H160.064L161.104 98.54L161.184 98.36L162.364 95.58ZM169.413 98.25H171.743C171.683 98.5233 171.587 98.78 171.453 99.02C171.327 99.26 171.163 99.4733 170.963 99.66C170.763 99.8467 170.523 99.9933 170.243 100.1C169.97 100.2 169.66 100.25 169.313 100.25C168.82 100.25 168.373 100.133 167.973 99.9C167.573 99.6667 167.253 99.3433 167.013 98.93C166.78 98.5167 166.663 98.04 166.663 97.5C166.663 96.9533 166.78 96.4767 167.013 96.07C167.253 95.6567 167.573 95.3333 167.973 95.1C168.373 94.8667 168.82 94.75 169.313 94.75C169.847 94.75 170.31 94.8567 170.703 95.07C171.097 95.2767 171.403 95.5667 171.623 95.94L172.223 95.39C172.023 95.0633 171.777 94.79 171.483 94.57C171.197 94.35 170.87 94.1833 170.503 94.07C170.143 93.9567 169.747 93.9 169.313 93.9C168.807 93.9 168.337 93.99 167.903 94.17C167.47 94.3433 167.093 94.5933 166.773 94.92C166.453 95.24 166.203 95.62 166.023 96.06C165.85 96.5 165.763 96.98 165.763 97.5C165.763 98.02 165.85 98.5 166.023 98.94C166.203 99.38 166.453 99.7633 166.773 100.09C167.093 100.41 167.47 100.66 167.903 100.84C168.337 101.013 168.807 101.1 169.313 101.1C169.847 101.1 170.32 101.003 170.733 100.81C171.153 100.61 171.507 100.34 171.793 100C172.08 99.66 172.297 99.2733 172.443 98.84C172.59 98.4 172.663 97.9367 172.663 97.45H169.413V98.25ZM174.387 101H177.917V100.2H174.387V101ZM174.387 94.8H177.917V94H174.387V94.8ZM174.387 97.6H177.717V96.8H174.387V97.6ZM173.917 94V101H174.767V94H173.917ZM182.413 94V101H186.013V100.2H183.263V94H182.413ZM187.888 98.9H191.588L191.288 98.1H188.188L187.888 98.9ZM189.718 95.58L190.918 98.4L190.998 98.6L192.018 101H192.968L189.718 93.65L186.468 101H187.418L188.458 98.54L188.538 98.36L189.718 95.58ZM196.926 94L195.116 97.24L193.316 94H192.366L194.696 97.99V101H195.546V97.98L197.876 94H196.926ZM198.724 97.5C198.724 96.9733 198.837 96.5033 199.064 96.09C199.297 95.6767 199.614 95.35 200.014 95.11C200.414 94.87 200.867 94.75 201.374 94.75C201.887 94.75 202.34 94.87 202.734 95.11C203.134 95.35 203.447 95.6767 203.674 96.09C203.907 96.5033 204.024 96.9733 204.024 97.5C204.024 98.0267 203.907 98.4967 203.674 98.91C203.447 99.3233 203.134 99.65 202.734 99.89C202.34 100.13 201.887 100.25 201.374 100.25C200.867 100.25 200.414 100.13 200.014 99.89C199.614 99.65 199.297 99.3233 199.064 98.91C198.837 98.4967 198.724 98.0267 198.724 97.5ZM197.824 97.5C197.824 98.0067 197.91 98.48 198.084 98.92C198.264 99.36 198.514 99.7433 198.834 100.07C199.154 100.39 199.53 100.643 199.964 100.83C200.397 101.01 200.867 101.1 201.374 101.1C201.887 101.1 202.357 101.01 202.784 100.83C203.217 100.643 203.594 100.39 203.914 100.07C204.234 99.7433 204.48 99.36 204.654 98.92C204.834 98.48 204.924 98.0067 204.924 97.5C204.924 96.9867 204.834 96.5133 204.654 96.08C204.48 95.64 204.234 95.26 203.914 94.94C203.594 94.6133 203.217 94.36 202.784 94.18C202.357 93.9933 201.887 93.9 201.374 93.9C200.867 93.9 200.397 93.9933 199.964 94.18C199.53 94.36 199.154 94.6133 198.834 94.94C198.514 95.26 198.264 95.64 198.084 96.08C197.91 96.5133 197.824 96.9867 197.824 97.5ZM206.074 94V98.7C206.074 99.0467 206.128 99.3667 206.234 99.66C206.348 99.9533 206.508 100.207 206.714 100.42C206.928 100.633 207.181 100.8 207.474 100.92C207.768 101.04 208.094 101.1 208.454 101.1C208.814 101.1 209.141 101.04 209.434 100.92C209.728 100.8 209.978 100.633 210.184 100.42C210.398 100.207 210.558 99.9533 210.664 99.66C210.778 99.3667 210.834 99.0467 210.834 98.7V94H209.984V98.7C209.984 99.18 209.854 99.5667 209.594 99.86C209.334 100.153 208.954 100.3 208.454 100.3C207.954 100.3 207.574 100.153 207.314 99.86C207.054 99.5667 206.924 99.18 206.924 98.7V94H206.074ZM211.684 94.8H213.484V101H214.334V94.8H216.134V94H211.684V94.8ZM217.292 98.88L216.612 99.34C216.766 99.6467 216.962 99.9367 217.202 100.21C217.449 100.477 217.732 100.693 218.052 100.86C218.379 101.02 218.732 101.1 219.112 101.1C219.392 101.1 219.659 101.053 219.912 100.96C220.172 100.867 220.402 100.733 220.602 100.56C220.809 100.387 220.969 100.177 221.082 99.93C221.202 99.6833 221.262 99.4067 221.262 99.1C221.262 98.78 221.206 98.5067 221.092 98.28C220.979 98.0467 220.832 97.85 220.652 97.69C220.479 97.5233 220.289 97.3867 220.082 97.28C219.876 97.1733 219.679 97.0867 219.492 97.02C219.086 96.88 218.762 96.74 218.522 96.6C218.289 96.4533 218.122 96.3 218.022 96.14C217.922 95.9733 217.872 95.7933 217.872 95.6C217.872 95.3733 217.959 95.17 218.132 94.99C218.306 94.8033 218.582 94.71 218.962 94.71C219.236 94.71 219.466 94.7633 219.652 94.87C219.846 94.9767 220.009 95.1133 220.142 95.28C220.276 95.4467 220.386 95.6167 220.472 95.79L221.202 95.37C221.089 95.1233 220.932 94.89 220.732 94.67C220.532 94.4433 220.289 94.26 220.002 94.12C219.722 93.9733 219.392 93.9 219.012 93.9C218.619 93.9 218.269 93.98 217.962 94.14C217.656 94.2933 217.416 94.5067 217.242 94.78C217.069 95.0533 216.982 95.3633 216.982 95.71C216.982 96.03 217.042 96.3 217.162 96.52C217.289 96.74 217.449 96.9267 217.642 97.08C217.836 97.2267 218.039 97.35 218.252 97.45C218.466 97.5433 218.659 97.62 218.832 97.68C219.099 97.7733 219.349 97.88 219.582 98C219.822 98.1133 220.016 98.2633 220.162 98.45C220.309 98.6367 220.382 98.8867 220.382 99.2C220.382 99.52 220.269 99.7833 220.042 99.99C219.816 100.197 219.516 100.3 219.142 100.3C218.862 100.3 218.612 100.24 218.392 100.12C218.172 100 217.972 99.8333 217.792 99.62C217.619 99.4067 217.452 99.16 217.292 98.88Z" fill="#333333"/>
<path d="M349.622 42.6585H320.378C320.302 42.6585 320.227 42.6434 320.157 42.6141C320.086 42.5848 320.023 42.5419 319.969 42.4879C319.915 42.4338 319.873 42.3696 319.844 42.2991C319.815 42.2286 319.801 42.1531 319.802 42.0769V31.8492C319.802 31.6962 319.862 31.5495 319.971 31.4413C320.079 31.3331 320.225 31.2723 320.378 31.2723H327.828C327.981 31.2723 328.127 31.3331 328.236 31.4413C328.344 31.5495 328.405 31.6962 328.405 31.8492C328.405 32.0022 328.344 32.149 328.236 32.2572C328.127 32.3654 327.981 32.4262 327.828 32.4262H320.955V41.5046H349.045V12.8892H320.955V21.1969C320.955 21.3499 320.895 21.4967 320.786 21.6049C320.678 21.7131 320.531 21.7738 320.378 21.7738C320.225 21.7738 320.079 21.7131 319.971 21.6049C319.862 21.4967 319.802 21.3499 319.802 21.1969V12.3031C319.801 12.2271 319.815 12.1518 319.844 12.0816C319.873 12.0113 319.915 11.9475 319.969 11.8938C320.023 11.8401 320.087 11.7976 320.157 11.7688C320.227 11.74 320.303 11.7255 320.378 11.7262H349.622C349.697 11.7255 349.773 11.74 349.843 11.7688C349.913 11.7976 349.977 11.8401 350.031 11.8938C350.085 11.9475 350.127 12.0113 350.156 12.0816C350.185 12.1518 350.199 12.2271 350.198 12.3031V42.0769C350.199 42.1531 350.185 42.2286 350.156 42.2991C350.127 42.3696 350.085 42.4338 350.031 42.4879C349.977 42.5419 349.914 42.5848 349.843 42.6141C349.773 42.6434 349.698 42.6585 349.622 42.6585Z" fill="black"/>
<path d="M335 50.2739C334.924 50.2745 334.849 50.26 334.779 50.2312C334.708 50.2024 334.644 50.16 334.591 50.1063C334.537 50.0526 334.495 49.9887 334.466 49.9184C334.437 49.8482 334.422 49.7729 334.423 49.6969V19.7985C334.423 19.6455 334.484 19.4987 334.592 19.3905C334.7 19.2823 334.847 19.2216 335 19.2216C335.153 19.2216 335.3 19.2823 335.408 19.3905C335.516 19.4987 335.577 19.6455 335.577 19.7985V49.6969C335.578 49.7729 335.563 49.8482 335.534 49.9184C335.505 49.9887 335.463 50.0526 335.409 50.1063C335.356 50.16 335.292 50.2024 335.222 50.2312C335.151 50.26 335.076 50.2745 335 50.2739Z" fill="black"/>
<path d="M322.056 80.18H325.499V79.3H322.056V80.18ZM322.056 83.26H325.389V82.38H322.056V83.26ZM321.539 79.3V87H322.474V79.3H321.539ZM326.984 79.3V84.47C326.984 84.8513 327.042 85.2033 327.16 85.526C327.284 85.8487 327.46 86.1273 327.688 86.362C327.922 86.5967 328.201 86.78 328.524 86.912C328.846 87.044 329.206 87.11 329.602 87.11C329.998 87.11 330.357 87.044 330.68 86.912C331.002 86.78 331.277 86.5967 331.505 86.362C331.739 86.1273 331.915 85.8487 332.033 85.526C332.157 85.2033 332.22 84.8513 332.22 84.47V79.3H331.285V84.47C331.285 84.998 331.142 85.4233 330.856 85.746C330.57 86.0687 330.152 86.23 329.602 86.23C329.052 86.23 328.634 86.0687 328.348 85.746C328.062 85.4233 327.919 84.998 327.919 84.47V79.3H326.984ZM333.924 79.3V87H337.884V86.12H334.859V79.3H333.924ZM338.877 79.3V87H342.837V86.12H339.812V79.3H338.877ZM347.246 79.3L345.255 82.864L343.275 79.3H342.23L344.793 83.689V87H345.728V83.678L348.291 79.3H347.246Z" fill="#333333"/>
<path d="M305.501 97.205L308.141 101H309.296L306.546 97.205H305.501ZM304.126 93.3V101H305.061V93.3H304.126ZM304.643 94.125H306.216C306.546 94.125 306.836 94.1837 307.085 94.301C307.342 94.4183 307.54 94.587 307.679 94.807C307.826 95.027 307.899 95.2947 307.899 95.61C307.899 95.9253 307.826 96.193 307.679 96.413C307.54 96.633 307.342 96.8017 307.085 96.919C306.836 97.0363 306.546 97.095 306.216 97.095H304.643V97.92H306.216C306.715 97.92 307.158 97.8283 307.547 97.645C307.943 97.4543 308.255 97.1867 308.482 96.842C308.717 96.49 308.834 96.0793 308.834 95.61C308.834 95.1333 308.717 94.7227 308.482 94.378C308.255 94.0333 307.943 93.7693 307.547 93.586C307.158 93.3953 306.715 93.3 306.216 93.3H304.643V94.125ZM310.798 101H314.681V100.12H310.798V101ZM310.798 94.18H314.681V93.3H310.798V94.18ZM310.798 97.26H314.461V96.38H310.798V97.26ZM310.281 93.3V101H311.216V93.3H310.281ZM316.615 98.668L315.867 99.174C316.036 99.5113 316.252 99.8303 316.516 100.131C316.788 100.424 317.099 100.663 317.451 100.846C317.811 101.022 318.199 101.11 318.617 101.11C318.925 101.11 319.219 101.059 319.497 100.956C319.783 100.853 320.036 100.707 320.256 100.516C320.484 100.325 320.66 100.094 320.784 99.823C320.916 99.5517 320.982 99.2473 320.982 98.91C320.982 98.558 320.92 98.2573 320.795 98.008C320.671 97.7513 320.509 97.535 320.311 97.359C320.121 97.1757 319.912 97.0253 319.684 96.908C319.457 96.7907 319.241 96.6953 319.035 96.622C318.588 96.468 318.232 96.314 317.968 96.16C317.712 95.9987 317.528 95.83 317.418 95.654C317.308 95.4707 317.253 95.2727 317.253 95.06C317.253 94.8107 317.349 94.587 317.539 94.389C317.73 94.1837 318.034 94.081 318.452 94.081C318.753 94.081 319.006 94.1397 319.211 94.257C319.424 94.3743 319.604 94.5247 319.75 94.708C319.897 94.8913 320.018 95.0783 320.113 95.269L320.916 94.807C320.792 94.5357 320.619 94.279 320.399 94.037C320.179 93.7877 319.912 93.586 319.596 93.432C319.288 93.2707 318.925 93.19 318.507 93.19C318.075 93.19 317.69 93.278 317.352 93.454C317.015 93.6227 316.751 93.8573 316.56 94.158C316.37 94.4587 316.274 94.7997 316.274 95.181C316.274 95.533 316.34 95.83 316.472 96.072C316.612 96.314 316.788 96.5193 317 96.688C317.213 96.8493 317.437 96.985 317.671 97.095C317.906 97.1977 318.119 97.282 318.309 97.348C318.603 97.4507 318.878 97.568 319.134 97.7C319.398 97.8247 319.611 97.9897 319.772 98.195C319.934 98.4003 320.014 98.6753 320.014 99.02C320.014 99.372 319.89 99.6617 319.64 99.889C319.391 100.116 319.061 100.23 318.65 100.23C318.342 100.23 318.067 100.164 317.825 100.032C317.583 99.9 317.363 99.7167 317.165 99.482C316.975 99.2473 316.791 98.976 316.615 98.668ZM322.356 93.3V101H323.291V93.3H322.356ZM322.873 94.18H324.446C324.944 94.18 325.348 94.301 325.656 94.543C325.971 94.7777 326.129 95.1333 326.129 95.61C326.129 96.0793 325.971 96.435 325.656 96.677C325.348 96.919 324.944 97.04 324.446 97.04H322.873V97.92H324.446C324.944 97.92 325.388 97.8283 325.777 97.645C326.173 97.4543 326.484 97.1867 326.712 96.842C326.946 96.49 327.064 96.0793 327.064 95.61C327.064 95.1333 326.946 94.7227 326.712 94.378C326.484 94.0333 326.173 93.7693 325.777 93.586C325.388 93.3953 324.944 93.3 324.446 93.3H322.873V94.18ZM328.932 97.15C328.932 96.5707 329.057 96.0537 329.306 95.599C329.563 95.1443 329.911 94.785 330.351 94.521C330.791 94.257 331.29 94.125 331.847 94.125C332.412 94.125 332.91 94.257 333.343 94.521C333.783 94.785 334.128 95.1443 334.377 95.599C334.634 96.0537 334.762 96.5707 334.762 97.15C334.762 97.7293 334.634 98.2463 334.377 98.701C334.128 99.1557 333.783 99.515 333.343 99.779C332.91 100.043 332.412 100.175 331.847 100.175C331.29 100.175 330.791 100.043 330.351 99.779C329.911 99.515 329.563 99.1557 329.306 98.701C329.057 98.2463 328.932 97.7293 328.932 97.15ZM327.942 97.15C327.942 97.7073 328.037 98.228 328.228 98.712C328.426 99.196 328.701 99.6177 329.053 99.977C329.405 100.329 329.819 100.608 330.296 100.813C330.773 101.011 331.29 101.11 331.847 101.11C332.412 101.11 332.929 101.011 333.398 100.813C333.875 100.608 334.289 100.329 334.641 99.977C334.993 99.6177 335.264 99.196 335.455 98.712C335.653 98.228 335.752 97.7073 335.752 97.15C335.752 96.5853 335.653 96.0647 335.455 95.588C335.264 95.104 334.993 94.686 334.641 94.334C334.289 93.9747 333.875 93.696 333.398 93.498C332.929 93.2927 332.412 93.19 331.847 93.19C331.29 93.19 330.773 93.2927 330.296 93.498C329.819 93.696 329.405 93.9747 329.053 94.334C328.701 94.686 328.426 95.104 328.228 95.588C328.037 96.0647 327.942 96.5853 327.942 97.15ZM342.902 93.3V99.031L337.072 92.915V101H338.007V95.269L343.837 101.385V93.3H342.902ZM345.888 98.668L345.14 99.174C345.308 99.5113 345.525 99.8303 345.789 100.131C346.06 100.424 346.372 100.663 346.724 100.846C347.083 101.022 347.472 101.11 347.89 101.11C348.198 101.11 348.491 101.059 348.77 100.956C349.056 100.853 349.309 100.707 349.529 100.516C349.756 100.325 349.932 100.094 350.057 99.823C350.189 99.5517 350.255 99.2473 350.255 98.91C350.255 98.558 350.192 98.2573 350.068 98.008C349.943 97.7513 349.782 97.535 349.584 97.359C349.393 97.1757 349.184 97.0253 348.957 96.908C348.729 96.7907 348.513 96.6953 348.308 96.622C347.86 96.468 347.505 96.314 347.241 96.16C346.984 95.9987 346.801 95.83 346.691 95.654C346.581 95.4707 346.526 95.2727 346.526 95.06C346.526 94.8107 346.621 94.587 346.812 94.389C347.002 94.1837 347.307 94.081 347.725 94.081C348.025 94.081 348.278 94.1397 348.484 94.257C348.696 94.3743 348.876 94.5247 349.023 94.708C349.169 94.8913 349.29 95.0783 349.386 95.269L350.189 94.807C350.064 94.5357 349.892 94.279 349.672 94.037C349.452 93.7877 349.184 93.586 348.869 93.432C348.561 93.2707 348.198 93.19 347.78 93.19C347.347 93.19 346.962 93.278 346.625 93.454C346.287 93.6227 346.023 93.8573 345.833 94.158C345.642 94.4587 345.547 94.7997 345.547 95.181C345.547 95.533 345.613 95.83 345.745 96.072C345.884 96.314 346.06 96.5193 346.273 96.688C346.485 96.8493 346.709 96.985 346.944 97.095C347.178 97.1977 347.391 97.282 347.582 97.348C347.875 97.4507 348.15 97.568 348.407 97.7C348.671 97.8247 348.883 97.9897 349.045 98.195C349.206 98.4003 349.287 98.6753 349.287 99.02C349.287 99.372 349.162 99.6617 348.913 99.889C348.663 100.116 348.333 100.23 347.923 100.23C347.615 100.23 347.34 100.164 347.098 100.032C346.856 99.9 346.636 99.7167 346.438 99.482C346.247 99.2473 346.064 98.976 345.888 98.668ZM351.628 93.3V101H352.563V93.3H351.628ZM357.074 99.262L354.544 93.3H353.499L357.074 101.385L360.649 93.3H359.604L357.074 99.262ZM362.103 101H365.986V100.12H362.103V101ZM362.103 94.18H365.986V93.3H362.103V94.18ZM362.103 97.26H365.766V96.38H362.103V97.26ZM361.586 93.3V101H362.521V93.3H361.586Z" fill="#333333"/>
<path d="M482.074 47.9939C478.97 47.9925 475.924 47.145 473.266 45.5425C470.607 43.9399 468.436 41.643 466.985 38.8987C465.534 36.1544 464.858 33.0665 465.031 29.9671C465.204 26.8676 466.218 23.8739 467.965 21.3077C468.008 21.2453 468.063 21.1919 468.126 21.1507C468.19 21.1095 468.261 21.0812 468.336 21.0675C468.41 21.0538 468.487 21.0549 468.561 21.0708C468.635 21.0867 468.705 21.117 468.768 21.16C468.83 21.203 468.883 21.258 468.925 21.3216C468.966 21.3852 468.994 21.4564 469.008 21.531C469.022 21.6055 469.02 21.6821 469.005 21.7562C468.989 21.8304 468.958 21.9007 468.915 21.9631C466.946 24.8167 465.965 28.237 466.123 31.7008C466.281 35.1647 467.57 38.4813 469.791 41.1435C472.013 43.8058 475.045 45.667 478.425 46.4426C481.805 47.2182 485.345 46.8654 488.505 45.4382C491.665 44.011 494.271 41.588 495.924 38.5398C497.576 35.4915 498.185 31.9859 497.657 28.5589C497.128 25.132 495.492 21.9725 492.998 19.5636C490.504 17.1547 487.289 15.6291 483.846 15.22V32.5185C483.846 32.6715 483.785 32.8182 483.677 32.9264C483.569 33.0346 483.422 33.0954 483.269 33.0954H472.308C472.152 33.0954 472.003 33.0336 471.893 32.9237C471.783 32.8138 471.722 32.6647 471.722 32.5092C471.722 32.3538 471.783 32.2047 471.893 32.0948C472.003 31.9848 472.152 31.9231 472.308 31.9231H482.688V14.5831C482.688 14.5031 482.705 14.424 482.738 14.3509C482.77 14.2778 482.818 14.2122 482.877 14.1585C482.934 14.1032 483.002 14.061 483.077 14.0347C483.152 14.0084 483.232 13.9987 483.311 14.0062C486.553 14.2686 489.653 15.4515 492.246 17.4158C494.838 19.38 496.816 22.044 497.946 25.0941C499.076 28.1443 499.312 31.4538 498.625 34.6333C497.938 37.8127 496.358 40.7299 494.069 43.0415C492.495 44.6166 490.624 45.865 488.566 46.7149C486.507 47.5648 484.301 47.9994 482.074 47.9939Z" fill="black"/>
<path d="M472.257 80.8H475.387V80H472.257V80.8ZM472.257 83.6H475.287V82.8H472.257V83.6ZM471.787 80V87H472.637V80H471.787ZM476.754 84.9H480.454L480.154 84.1H477.054L476.754 84.9ZM478.584 81.58L479.784 84.4L479.864 84.6L480.884 87H481.834L478.584 79.65L475.334 87H476.284L477.324 84.54L477.404 84.36L478.584 81.58ZM482.946 84.88L482.266 85.34C482.419 85.6467 482.616 85.9367 482.856 86.21C483.102 86.4767 483.386 86.6933 483.706 86.86C484.032 87.02 484.386 87.1 484.766 87.1C485.046 87.1 485.312 87.0533 485.566 86.96C485.826 86.8667 486.056 86.7333 486.256 86.56C486.462 86.3867 486.622 86.1767 486.736 85.93C486.856 85.6833 486.916 85.4067 486.916 85.1C486.916 84.78 486.859 84.5067 486.746 84.28C486.632 84.0467 486.486 83.85 486.306 83.69C486.132 83.5233 485.942 83.3867 485.736 83.28C485.529 83.1733 485.332 83.0867 485.146 83.02C484.739 82.88 484.416 82.74 484.176 82.6C483.942 82.4533 483.776 82.3 483.676 82.14C483.576 81.9733 483.526 81.7933 483.526 81.6C483.526 81.3733 483.612 81.17 483.786 80.99C483.959 80.8033 484.236 80.71 484.616 80.71C484.889 80.71 485.119 80.7633 485.306 80.87C485.499 80.9767 485.662 81.1133 485.796 81.28C485.929 81.4467 486.039 81.6167 486.126 81.79L486.856 81.37C486.742 81.1233 486.586 80.89 486.386 80.67C486.186 80.4433 485.942 80.26 485.656 80.12C485.376 79.9733 485.046 79.9 484.666 79.9C484.272 79.9 483.922 79.98 483.616 80.14C483.309 80.2933 483.069 80.5067 482.896 80.78C482.722 81.0533 482.636 81.3633 482.636 81.71C482.636 82.03 482.696 82.3 482.816 82.52C482.942 82.74 483.102 82.9267 483.296 83.08C483.489 83.2267 483.692 83.35 483.906 83.45C484.119 83.5433 484.312 83.62 484.486 83.68C484.752 83.7733 485.002 83.88 485.236 84C485.476 84.1133 485.669 84.2633 485.816 84.45C485.962 84.6367 486.036 84.8867 486.036 85.2C486.036 85.52 485.922 85.7833 485.696 85.99C485.469 86.1967 485.169 86.3 484.796 86.3C484.516 86.3 484.266 86.24 484.046 86.12C483.826 86 483.626 85.8333 483.446 85.62C483.272 85.4067 483.106 85.16 482.946 84.88ZM487.464 80.8H489.264V87H490.114V80.8H491.914V80H487.464V80.8Z" fill="#333333"/>
<path d="M445.158 97.5C445.158 96.9533 445.278 96.4767 445.518 96.07C445.765 95.6567 446.085 95.3333 446.478 95.1C446.872 94.8667 447.298 94.75 447.758 94.75C448.092 94.75 448.395 94.7933 448.668 94.88C448.948 94.9667 449.202 95.09 449.428 95.25C449.655 95.4033 449.848 95.5833 450.008 95.79V94.67C449.715 94.41 449.395 94.2167 449.048 94.09C448.702 93.9633 448.272 93.9 447.758 93.9C447.272 93.9 446.815 93.99 446.388 94.17C445.968 94.3433 445.598 94.5933 445.278 94.92C444.958 95.24 444.708 95.62 444.528 96.06C444.348 96.5 444.258 96.98 444.258 97.5C444.258 98.02 444.348 98.5 444.528 98.94C444.708 99.38 444.958 99.7633 445.278 100.09C445.598 100.41 445.968 100.66 446.388 100.84C446.815 101.013 447.272 101.1 447.758 101.1C448.272 101.1 448.702 101.037 449.048 100.91C449.395 100.783 449.715 100.59 450.008 100.33V99.21C449.848 99.4167 449.655 99.6 449.428 99.76C449.202 99.9133 448.948 100.033 448.668 100.12C448.395 100.207 448.092 100.25 447.758 100.25C447.298 100.25 446.872 100.133 446.478 99.9C446.085 99.6667 445.765 99.3433 445.518 98.93C445.278 98.5167 445.158 98.04 445.158 97.5ZM451.454 94V98.7C451.454 99.0467 451.507 99.3667 451.614 99.66C451.727 99.9533 451.887 100.207 452.094 100.42C452.307 100.633 452.561 100.8 452.854 100.92C453.147 101.04 453.474 101.1 453.834 101.1C454.194 101.1 454.521 101.04 454.814 100.92C455.107 100.8 455.357 100.633 455.564 100.42C455.777 100.207 455.937 99.9533 456.044 99.66C456.157 99.3667 456.214 99.0467 456.214 98.7V94H455.364V98.7C455.364 99.18 455.234 99.5667 454.974 99.86C454.714 100.153 454.334 100.3 453.834 100.3C453.334 100.3 452.954 100.153 452.694 99.86C452.434 99.5667 452.304 99.18 452.304 98.7V94H451.454ZM458.024 98.88L457.344 99.34C457.497 99.6467 457.694 99.9367 457.934 100.21C458.181 100.477 458.464 100.693 458.784 100.86C459.111 101.02 459.464 101.1 459.844 101.1C460.124 101.1 460.391 101.053 460.644 100.96C460.904 100.867 461.134 100.733 461.334 100.56C461.541 100.387 461.701 100.177 461.814 99.93C461.934 99.6833 461.994 99.4067 461.994 99.1C461.994 98.78 461.937 98.5067 461.824 98.28C461.711 98.0467 461.564 97.85 461.384 97.69C461.211 97.5233 461.021 97.3867 460.814 97.28C460.607 97.1733 460.411 97.0867 460.224 97.02C459.817 96.88 459.494 96.74 459.254 96.6C459.021 96.4533 458.854 96.3 458.754 96.14C458.654 95.9733 458.604 95.7933 458.604 95.6C458.604 95.3733 458.691 95.17 458.864 94.99C459.037 94.8033 459.314 94.71 459.694 94.71C459.967 94.71 460.197 94.7633 460.384 94.87C460.577 94.9767 460.741 95.1133 460.874 95.28C461.007 95.4467 461.117 95.6167 461.204 95.79L461.934 95.37C461.821 95.1233 461.664 94.89 461.464 94.67C461.264 94.4433 461.021 94.26 460.734 94.12C460.454 93.9733 460.124 93.9 459.744 93.9C459.351 93.9 459.001 93.98 458.694 94.14C458.387 94.2933 458.147 94.5067 457.974 94.78C457.801 95.0533 457.714 95.3633 457.714 95.71C457.714 96.03 457.774 96.3 457.894 96.52C458.021 96.74 458.181 96.9267 458.374 97.08C458.567 97.2267 458.771 97.35 458.984 97.45C459.197 97.5433 459.391 97.62 459.564 97.68C459.831 97.7733 460.081 97.88 460.314 98C460.554 98.1133 460.747 98.2633 460.894 98.45C461.041 98.6367 461.114 98.8867 461.114 99.2C461.114 99.52 461.001 99.7833 460.774 99.99C460.547 100.197 460.247 100.3 459.874 100.3C459.594 100.3 459.344 100.24 459.124 100.12C458.904 100 458.704 99.8333 458.524 99.62C458.351 99.4067 458.184 99.16 458.024 98.88ZM462.542 94.8H464.342V101H465.192V94.8H466.992V94H462.542V94.8ZM467.893 97.5C467.893 96.9733 468.006 96.5033 468.233 96.09C468.466 95.6767 468.783 95.35 469.183 95.11C469.583 94.87 470.036 94.75 470.543 94.75C471.056 94.75 471.509 94.87 471.903 95.11C472.303 95.35 472.616 95.6767 472.843 96.09C473.076 96.5033 473.193 96.9733 473.193 97.5C473.193 98.0267 473.076 98.4967 472.843 98.91C472.616 99.3233 472.303 99.65 471.903 99.89C471.509 100.13 471.056 100.25 470.543 100.25C470.036 100.25 469.583 100.13 469.183 99.89C468.783 99.65 468.466 99.3233 468.233 98.91C468.006 98.4967 467.893 98.0267 467.893 97.5ZM466.993 97.5C466.993 98.0067 467.079 98.48 467.253 98.92C467.433 99.36 467.683 99.7433 468.003 100.07C468.323 100.39 468.699 100.643 469.133 100.83C469.566 101.01 470.036 101.1 470.543 101.1C471.056 101.1 471.526 101.01 471.953 100.83C472.386 100.643 472.763 100.39 473.083 100.07C473.403 99.7433 473.649 99.36 473.823 98.92C474.003 98.48 474.093 98.0067 474.093 97.5C474.093 96.9867 474.003 96.5133 473.823 96.08C473.649 95.64 473.403 95.26 473.083 94.94C472.763 94.6133 472.386 94.36 471.953 94.18C471.526 93.9933 471.056 93.9 470.543 93.9C470.036 93.9 469.566 93.9933 469.133 94.18C468.699 94.36 468.323 94.6133 468.003 94.94C467.683 95.26 467.433 95.64 467.253 96.08C467.079 96.5133 466.993 96.9867 466.993 97.5ZM476.263 96.27L478.543 100.35L480.823 96.27L481.343 101H482.193L481.343 93.65L478.543 98.72L475.743 93.65L474.893 101H475.743L476.263 96.27ZM483.389 94V101H484.239V94H483.389ZM485.39 94.8H488.87L485.19 101H490.09V100.2H486.61L490.29 94H485.39V94.8ZM491.959 98.9H495.659L495.359 98.1H492.259L491.959 98.9ZM493.789 95.58L494.989 98.4L495.069 98.6L496.089 101H497.039L493.789 93.65L490.539 101H491.489L492.529 98.54L492.609 98.36L493.789 95.58ZM496.488 94.8H498.288V101H499.138V94.8H500.938V94H496.488V94.8ZM501.836 94V101H502.686V94H501.836ZM504.787 97.5C504.787 96.9733 504.901 96.5033 505.127 96.09C505.361 95.6767 505.677 95.35 506.077 95.11C506.477 94.87 506.931 94.75 507.437 94.75C507.951 94.75 508.404 94.87 508.797 95.11C509.197 95.35 509.511 95.6767 509.737 96.09C509.971 96.5033 510.087 96.9733 510.087 97.5C510.087 98.0267 509.971 98.4967 509.737 98.91C509.511 99.3233 509.197 99.65 508.797 99.89C508.404 100.13 507.951 100.25 507.437 100.25C506.931 100.25 506.477 100.13 506.077 99.89C505.677 99.65 505.361 99.3233 505.127 98.91C504.901 98.4967 504.787 98.0267 504.787 97.5ZM503.887 97.5C503.887 98.0067 503.974 98.48 504.147 98.92C504.327 99.36 504.577 99.7433 504.897 100.07C505.217 100.39 505.594 100.643 506.027 100.83C506.461 101.01 506.931 101.1 507.437 101.1C507.951 101.1 508.421 101.01 508.847 100.83C509.281 100.643 509.657 100.39 509.977 100.07C510.297 99.7433 510.544 99.36 510.717 98.92C510.897 98.48 510.987 98.0067 510.987 97.5C510.987 96.9867 510.897 96.5133 510.717 96.08C510.544 95.64 510.297 95.26 509.977 94.94C509.657 94.6133 509.281 94.36 508.847 94.18C508.421 93.9933 507.951 93.9 507.437 93.9C506.931 93.9 506.461 93.9933 506.027 94.18C505.594 94.36 505.217 94.6133 504.897 94.94C504.577 95.26 504.327 95.64 504.147 96.08C503.974 96.5133 503.887 96.9867 503.887 97.5ZM517.488 94V99.21L512.188 93.65V101H513.038V95.79L518.338 101.35V94H517.488Z" fill="#333333"/>
</svg>
